<svg id="Layer_1" data-name="Layer 1" xmlns="http://www.w3.org/2000/svg" viewBox="0 0 970.47 900.21"><defs><style>.cls-1{fill:#5e5a5a;}.cls-2,.cls-3{fill:none;stroke-miterlimit:10;stroke-width:3px;}.cls-2{stroke:#5e5a5a;}.cls-3{stroke:#7f3f98;}.cls-4{fill:#fff;}</style></defs><path class="cls-1" d="M251.62,697.07" transform="translate(-14.53 -49.43)"/><path class="cls-2" d="M251.62,697.07" transform="translate(-14.53 -49.43)"/><path d="M248.62,694.07" transform="translate(-14.53 -49.43)"/><path class="cls-3" d="M248.62,694.07" transform="translate(-14.53 -49.43)"/><path class="cls-4" d="M686,448.52c-6.34,107-184.36,56.61-187.28,55.34l-1.37-141.77c93.35,0,161.36,14.61,180.75,53.39a3.2,3.2,0,0,1,.3.59C684.09,425.32,686.72,436.14,686,448.52Z" transform="translate(-14.53 -49.43)"/><path class="cls-4" d="M676.54,833c-2,.69-4.1,1.37-6.24,2v.1c-54.86,18.32-115.37,35.76-169.16,32.44l-1.75-203.45V664c1.95.19,4.48.38,7.7.68,3.9.29,8.38.39,13.06.58,23.09.78,39.75.88,59-2.24C593.71,672.82,656.66,779.81,676.54,833Z" transform="translate(-14.53 -49.43)"/><path class="cls-4" d="M817.82,755.55c-6.43-13.16-4.67-14.42-16.66-36.15C779,679.16,753,635.4,743.38,629c.2-.19,86-62.26,91.2-178.12,0-37.12-5.45-68.2-16.07-94.42-.39-1-.78-2-1.27-3-.88-2-1.75-4-2.73-5.94-1.27-2.63-2.53-5.16-3.9-7.7.1-.09,0-.09-.09-.19-1.08-2.05-2.25-4.09-3.51-6-37.22-60.9-110.3-89.45-214.08-105-24.06-3.6-49.79-6.52-77.17-9-53.69-4.87-113.61-7.89-179.09-11.11a4,4,0,0,0-1.08-.1h-.68c.49,132.91,1.27,381.68,1.46,449,.1,4.77.1,8.57.1,11.3.1,33.32.2,64.5.29,92.27v1.08c-.39,10.23-.68,19.68-1.07,28.35-.1,2.24-.1,4.48-.19,6.63a1.6,1.6,0,0,0,0,1c-.3,10.72-.69,20.17-1.08,28.65a.47.47,0,0,0,0,.49c-3.11,33.42-3.79,64.79-23.28,84.28-15.5,13.45-40.73,21.44-65.09,24.85l-85.75,12C93.16,957.64,29,917.59,16.77,858.64a95,95,0,0,1-2.24-19.39c0-51.16,41.41-95.69,101.05-104l15.49-2.14,69.47-9.45c7.31-1,13.25-1.27,20.76-2.05v-.29l.48-671.56h1.86C435.76,45.7,955.6,70.45,984,413.73,996,560.57,900.65,711.7,817.82,755.55Z" transform="translate(-14.53 -49.43)"/></svg>